PathFileType	4	(X/Y/Z)	Patient5_TMGait_0pt45_1_left_13.trc.trc
DataRate	CameraRate	NumFrames	NumMarkers	Units	OrigDataRate	OrigDataStartFrame	OrigNumFrames
57.142857142857	57.142857142857	4	32	mm	57.142857142857	124	       141
Frame#	Time	R.ASIS			L.ASIS			Chest			R.Shoulder			Neck			L.Shoulder			L.Elbow			L.Wrist			R.Elbow			R.Wrist			L.Thigh.Superior			L.Thigh.Lateral			L.Thigh.Inferior			L.Patella			L.Shank.Superior			L.Shank.Lateral			L.Shank.Inferior			L.Heel			L.Midfoot.Lateral			L.Midfoot.Superior			L.Toe			R.Thigh.Superior			R.Thigh.Lateral			R.Thigh.Inferior			R.Patella			R.Shank.Superior			R.Shank.Lateral			R.Shank.Inferior			R.Heel			R.Midfoot.Lateral			R.Midfoot.Superior			R.Toe			
		X1	Y1	Z1	X2	Y2	Z2	X3	Y3	Z3	X4	Y4	Z4	X5	Y5	Z5	X6	Y6	Z6	X7	Y7	Z7	X8	Y8	Z8	X9	Y9	Z9	X10	Y10	Z10	X11	Y11	Z11	X12	Y12	Z12	X13	Y13	Z13	X14	Y14	Z14	X15	Y15	Z15	X16	Y16	Z16	X17	Y17	Z17	X18	Y18	Z18	X19	Y19	Z19	X20	Y20	Z20	X21	Y21	Z21	X22	Y22	Z22	X23	Y23	Z23	X24	Y24	Z24	X25	Y25	Z25	X26	Y26	Z26	X27	Y27	Z27	X28	Y28	Z28	X29	Y29	Z29	X30	Y30	Z30	X31	Y31	Z31	X32	Y32	Z32	

124	22.332500000000	985.598325121914	947.680858276493	604.806105162774	989.534002508883	942.603375067646	363.639241124762	1102.364802891685	1403.705922594211	494.338800926870	1011.088244785159	1468.208560814424	662.761132710536	980.815352730423	1533.736458389750	482.272854141998	1042.390530516037	1478.910636953382	299.599076293244	942.510227456245	1169.526818768213	168.077487503442	1028.854795499077	892.826644453461	190.632207879329	936.395814074940	1156.766135413446	818.884981319546	1149.054310029235	974.462231547981	742.040636556777	1049.376066364773	756.180076906381	340.103012581160	1006.559417857243	669.246453356782	294.988797421281	1095.718213668112	640.846199404862	362.340961664345	1143.400131202255	534.168081463909	363.275631035334	1126.478004536618	422.603928973198	381.976518632251	1076.545566570875	339.726146672274	305.059834141231	1131.326316283052	294.631641390254	387.338943052068	1067.444845845232	43.456598725479	382.045209080203	1156.235312459483	35.292664381970	318.757807033422	1239.620980880847	115.407384917341	359.693854145294	1350.675160745146	98.161252964023	358.902624919238	941.686376855336	713.689694021243	610.862693462123	833.324131127932	657.867059535552	656.806116257937	899.490827539581	588.971433645204	584.409588330940	875.488666023258	496.281995708376	608.099773787485	819.671088493684	412.934463674950	566.219642549833	736.364733316482	355.704441510021	641.540358032806	784.986937044243	278.414741963737	562.609489538254	636.132659230131	55.809564342247	520.344272895625	712.057074938032	25.873004558854	595.603052579468	818.845164127683	87.519378576921	575.898373008437	921.896471397068	44.238212708302	578.367375632210	
125	22.350000000000	989.728703335193	946.987031742164	603.608923642048	997.302257278813	941.254707433278	362.961170134505	1105.449543157770	1403.483846500567	492.705879920596	1011.213811538485	1468.019323573750	659.447761848114	983.948501427675	1532.865239465159	478.376488589222	1047.820493810255	1477.628620624530	296.701008703682	950.355982180638	1167.490195904581	165.047701531122	1036.432489271951	890.921924428158	189.906551693888	937.124526855703	1155.745200523387	814.779267629859	1150.683754906682	973.250568993546	740.968733337848	1056.861461111018	753.084666375379	341.146737015491	1012.764261130470	665.969005281270	296.918071089176	1100.519621337338	636.818747643139	365.739085137177	1145.487611920358	530.669802701621	369.485440727813	1128.634026991204	419.165982385739	386.924093413213	1082.253600771876	336.619112648900	307.699855013978	1133.901398427157	291.339703168888	391.207253753718	1069.827208412761	44.080563127384	382.333361905231	1160.022528200170	32.866409209636	321.723331224436	1243.817528814247	110.406696969331	365.818039285403	1354.265333804202	90.252892297700	368.412711278195	944.373234048155	713.125390704835	609.936810502398	835.057113575163	658.129079578164	655.120734451418	901.346277301038	588.399340163826	583.818920996475	875.941109612391	495.558782794712	607.567911600229	819.061064702937	412.463372256566	565.538707301456	733.757907285473	357.000416508439	640.211335034477	781.501762702525	278.436176375874	562.190498012905	628.713519146773	57.388839140544	520.326198927653	704.430261873334	26.557671980569	595.478029330407	811.574382529107	87.710669066002	576.191593481807	914.157347998372	44.043765311135	578.448285739557	
126	22.367500000000	993.945144788419	946.877628706573	602.225265893468	1005.192233794002	940.676959303118	361.938421794106	1108.705408985358	1403.938079232903	490.859810406852	1011.335637886080	1468.462512897761	655.981106094402	987.304008900019	1532.661943876560	474.249143185729	1053.384017814752	1477.028617187855	293.627776757840	958.774609357834	1166.067101461903	161.803842194863	1044.516805206542	889.632386267659	189.198926707438	937.093206066867	1155.243636123274	809.949035722410	1151.881607013642	972.814157673235	739.778655027915	1065.313789155862	751.714454216717	342.778355041022	1020.799575454949	664.518457499821	298.661751309896	1106.689243925518	634.494901048039	369.256484609962	1148.909332294727	527.879701298797	375.251326707673	1130.671181622357	416.254834350299	391.113644579643	1087.255195715669	334.800381925168	309.274252083299	1134.424917885440	288.559931244346	394.194337640635	1066.581551077265	45.624348566922	381.944023147647	1157.958172357100	30.886445658161	323.728503206368	1243.206142679439	104.900848200327	370.696874938046	1352.842554184122	80.421710701749	376.294697423852	947.694549494916	713.032910184102	608.888228586057	837.559731668162	658.777118820117	653.396912393457	904.053805799817	588.252701514939	583.129639060932	877.335633142021	495.228699888362	607.042676358631	819.280631266191	412.214821233754	564.900280455316	731.964809958523	358.693743635605	638.961920254956	778.634326789752	278.791840735826	561.826914661020	621.574314813805	59.880486402698	520.361689848253	696.908376471884	27.726333702678	595.366808288745	804.654644173656	87.935124764762	576.604959558337	906.485503438026	43.809117827384	578.554070182299	
127	22.385000000000	998.050193529148	947.467648998181	600.588960619136	1012.985432451749	940.895729275094	360.547093680458	1112.227772565154	1405.042047317102	488.843119390032	1011.739167859748	1469.574580671569	652.452900714631	990.995777143740	1533.193169029654	470.010172526334	1059.196250437144	1477.178859683570	290.478524776914	967.606880856838	1165.408972318463	158.442774021934	1053.062907508388	889.136612219585	188.442881407193	936.245863093316	1155.399758433592	804.440107369482	1152.576005253963	973.315900431077	738.446280282701	1074.131168826237	751.835283819292	344.644866231763	1029.910444922527	664.679120418471	299.955384811518	1113.631165755868	633.668508184032	372.442601996881	1153.220766032640	525.886229186406	380.040894856133	1132.651982697821	414.024776058163	394.253837803574	1091.508793838302	334.041180508350	309.831038578056	1133.587555946354	286.404543679995	396.180390036638	1059.694615494615	47.383623889578	381.135390402938	1151.921282370853	29.358600856116	324.761195640751	1239.186942547100	99.641016374558	374.013793600894	1348.003883472133	70.279934962949	381.873916551095	951.535981377443	713.516269235537	607.732764870089	840.730835410493	659.885727457002	651.668593057581	907.566850175049	588.629833812424	582.409897399179	879.718072363860	495.364351355836	606.620888102928	820.316955675847	412.215340189065	564.381309915928	731.013020492503	360.831150255337	637.867849828035	776.439251691588	279.550813696189	561.574681050009	614.790215276452	63.469320469978	520.453112865010	689.515321628432	29.511880349210	595.272454602614	798.151196808390	88.200578045887	577.154005727623	898.880304760150	43.542645279659	578.670536294467	
